<svg width="136" height="187" viewBox="0 0 136 187" fill="none" xmlns="http://www.w3.org/2000/svg">
<rect x="132.378" y="66.895" width="126.405" height="10.3543" transform="rotate(117.371 132.378 66.895)" fill="#E0E0E0"/>
<rect x="43.0742" y="171.337" width="58.4432" height="15.6235" rx="3.09701" fill="#30235B"/>
<rect x="125.69" y="67.9095" width="67.8967" height="10.3543" transform="rotate(-139.766 125.69 67.9095)" fill="#E0E0E0"/>
<rect x="74.9599" y="19.5439" width="20.0325" height="3.56661" transform="rotate(162.128 74.9599 19.5439)" fill="#E0E0E0"/>
<circle cx="128.007" cy="63.7401" r="7.23339" fill="#30235B"/>
<path d="M70.4364 14.3175L80.5702 16.1987L73.8741 24.0342L70.4364 14.3175Z" fill="#30235B"/>
<path d="M38.8745 10.9404C41.2087 5.07734 47.8539 2.21655 53.717 4.55072C59.5801 6.88489 62.4409 13.5301 60.1067 19.3932L53.6525 35.6052L32.4203 27.1525L38.8745 10.9404Z" fill="#30235B"/>
<path d="M45.6068 27.4817C22.0432 18.2293 6.36614 38.9558 0.830525 49.9325C17.1913 73.2585 47.1613 75.6547 60.7438 74.4802C65.5163 62.6692 69.1703 36.7341 45.6068 27.4817Z" fill="#30235B"/>
</svg>
